<?xml version="1.0" standalone="no"?><!DOCTYPE svg PUBLIC "-//W3C//DTD SVG 1.1//EN" "http://www.w3.org/Graphics/SVG/1.1/DTD/svg11.dtd"><svg t="1495085512811" class="icon" style="" viewBox="0 0 1024 1024" version="1.1" xmlns="http://www.w3.org/2000/svg" p-id="3476" xmlns:xlink="http://www.w3.org/1999/xlink" width="200" height="200"><defs><style type="text/css"></style></defs><path d="M906.249179 863.007329c13.596669 0 24.618701-10.883885 24.618701-24.52865l0-34.196847c0-13.547551-11.209296-24.52865-24.618701-24.52865l-788.498358 0c-13.596669 0-24.618701 10.883885-24.618701 24.52865l0 34.196847c0 13.547551 11.209296 24.52865 24.618701 24.52865L906.249179 863.007329zM93.13212 560.683792c0 13.538341 11.209296 24.5133 24.618701 24.5133l788.498358 0c13.596669 0 24.618701-11.019984 24.618701-24.5133l0-32.676214c0-13.538341-11.209296-24.5133-24.618701-24.5133l-788.498358 0c-13.596669 0-24.618701 11.019984-24.618701 24.5133L93.13212 560.683792zM93.13212 281.113469c0 13.547551 11.209296 24.52865 24.618701 24.52865l788.498358 0c13.596669 0 24.618701-10.883885 24.618701-24.52865L930.86788 246.916623c0-13.547551-11.209296-24.52865-24.618701-24.52865l-788.498358 0c-13.596669 0-24.618701 10.883885-24.618701 24.52865L93.13212 281.113469z" p-id="3477" fill="#ffffff"></path></svg>