<?xml version="1.0" standalone="no"?><!DOCTYPE svg PUBLIC "-//W3C//DTD SVG 1.1//EN" "http://www.w3.org/Graphics/SVG/1.1/DTD/svg11.dtd"><svg t="1495190136571" class="icon" style="" viewBox="0 0 1024 1024" version="1.1" xmlns="http://www.w3.org/2000/svg" p-id="2525" xmlns:xlink="http://www.w3.org/1999/xlink" width="200" height="200"><defs><style type="text/css"></style></defs><path d="M115.36572 550.495783l45.489488 24.325929c0 0 20.67704 12.284594 31.623708-10.703409l112.507424-245.083739c0 0 10.703409-20.920299-6.689631-30.772301L248.550184 263.084927c0 0-15.325336-8.878964-25.420596 9.852001-0.364889 7.541038-115.426535 249.705666-115.426535 249.705666S100.405274 542.589856 115.36572 550.495783L115.36572 550.495783zM857.306568 575.429861l46.340896-22.258225c0 0 22.136596-9.365483 11.433187-32.596745L799.532486 277.193966c0 0-9.243853-21.528448-27.4883-13.500891l-49.624896 25.055707c0 0-16.298373 7.05452-8.270816 26.880152 5.594964 4.986816 117.494239 248.854258 117.494239 248.854258S842.102863 582.72764 857.306568 575.429861L857.306568 575.429861zM225.440551 574.578453l15.325336-33.813042 53.760304 70.666825c0 0 34.907709-8.270816 47.192303 14.473928 0 0 11.554816 13.86578 6.446371 40.016154 0 0 7.176149 5.473334 7.784297 8.878964 0 0 24.08267-6.081482 38.556598 11.798076 0 0 13.257632 11.068298 11.798076 32.596745 0 0 9.608742 4.257038 11.554816 10.21689 0 0 23.596152-6.081482 35.150968 8.270816 0 0 13.987409 13.62252 13.014372 29.556004l22.014966 16.663262c0 0 20.433781 1.824445 23.717781 18.487706l19.704003 15.203706c0 0 31.502079 13.014372 33.204894-19.825632l-73.950826-58.62549c0 0-8.635705-23.596152 18.487706-19.947262l110.19646 80.883715c0 0 18.001188 8.027557 28.947856-9.852001 0 0 10.581779-15.325336-4.500297-31.988597l-117.12935-88.181494c0 0-10.33852-24.690818 16.298373-22.744744l139.022687 102.533793c0 0 19.704003 8.149186 28.096449-7.176149 0 0 11.311557-15.325336 0-31.13719l-153.496615-116.642832c0 0-9.243853-27.974819 19.460744-20.67704l158.240171 117.37261c0 0 23.961041 7.905927 34.54282-12.527854 0 0 13.500891-21.893337-4.621927-39.894524L540.339708 435.555767c0 0-41.597339-20.67704-66.409787 22.623114 0 0-4.378667 70.666825-79.667419 83.437938 0 0-51.327711-4.135408-39.408006-39.286376 0 0 15.082076-20.79867 13.74415-64.585343 0 0 1.702815-31.380449 22.623114-58.138971L310.581304 379.606129l17.757928-38.191709 121.751277 0c0 0 49.989785-29.556004 87.694976-26.758522 0 0 49.138377 2.797482 62.396009 10.581779 0 0 65.193491 21.650077 94.384606 16.663262l108.980164 235.231738L786.153225 618.243497c0 0 31.866968 34.177931 8.392446 75.532011-6.568001 13.86578-23.352892 27.366671-50.841193 28.582967 0 0 4.257038 27.974819-15.082076 43.665043 0 0-14.230669 20.190521-48.530229 14.717187 0 0 1.946074 24.690818-20.79867 41.110821 0 0-27.123411 24.2043-68.84238-5.351704 0 0-6.689631 27.73156-40.016154 33.448153 0 0-24.325929 3.892149-38.556598-10.33852 0 0-25.542226 50.111415-61.787861 21.893337 0 0-22.988003-19.825632-6.81126-47.922081 0 0-31.01556 50.962822-67.747714 12.649483 0 0-20.433781-15.933484-1.581185-49.381637 0 0-29.191115 34.664449-61.301342 3.284 0 0-21.893337-18.730966-4.378667-53.395415 0 0-29.920893 36.853783-64.706972 1.702815 0 0-14.595558-13.987409-6.203112-45.124599l33.691412-47.922081L225.440551 574.578453 225.440551 574.578453zM225.440551 574.578453" p-id="2526" fill="#ffffff"></path><path d="M512 16.663262C238.454923 16.663262 16.724076 238.394109 16.724076 511.939185c0 273.666706 221.730847 495.397553 495.275924 495.397553 273.666706 0 495.275924-221.730847 495.275924-495.397553C1007.275924 238.394109 785.666706 16.663262 512 16.663262L512 16.663262zM512 976.321178c-256.395296 0-464.260363-207.865067-464.260363-464.381993 0-256.395296 207.865067-464.260363 464.260363-464.260363 256.516926 0 464.381993 207.865067 464.381993 464.260363C976.381993 768.456111 768.516926 976.321178 512 976.321178L512 976.321178zM512 976.321178" p-id="2527" fill="#ffffff"></path></svg>