<?xml version="1.0" standalone="no"?><!DOCTYPE svg PUBLIC "-//W3C//DTD SVG 1.1//EN" "http://www.w3.org/Graphics/SVG/1.1/DTD/svg11.dtd"><svg t="1495086197752" class="icon" style="" viewBox="0 0 1024 1024" version="1.1" xmlns="http://www.w3.org/2000/svg" p-id="4193" xmlns:xlink="http://www.w3.org/1999/xlink" width="200" height="200"><defs><style type="text/css"></style></defs><path d="M1014.661594 822.659671c-0.004-0.004-0.008-0.008-0.012-0.01L704.005718 511.999795l310.643876-310.649876 0.012-0.01a31.762987 31.762987 0 0 0 7.311997-11.415995c4.245998-11.375995 1.823999-24.68199-7.323997-33.829986L867.903652 9.347996c-9.147996-9.145996-22.449991-11.565995-33.827986-7.319997a31.825987 31.825987 0 0 0-11.417995 7.309997c0 0.004-0.004 0.006-0.008 0.01L512.001795 319.999872 201.353919 9.349996l-0.01-0.01a31.793987 31.793987 0 0 0-11.413995-7.309997C178.549929-2.217999 165.247934 0.204 156.099937 9.349996L9.351996 156.097937C0.204 165.245934-2.215999 178.549929 2.029999 189.925924a31.815987 31.815987 0 0 0 7.311997 11.415995c0.004 0.002 0.006 0.006 0.01 0.01L320.001872 511.999795 9.351996 822.651671l-0.008 0.01a31.858987 31.858987 0 0 0-7.313997 11.413995c-4.247998 11.375995-1.825999 24.68199 7.321997 33.829986L156.099937 1014.651594c9.149996 9.147996 22.451991 11.567995 33.829987 7.321997a31.833987 31.833987 0 0 0 11.415995-7.311997c0.002-0.004 0.006-0.006 0.01-0.01l310.647876-310.649876 310.647876 310.649876 0.012 0.008a31.821987 31.821987 0 0 0 11.413995 7.313997c11.377995 4.245998 24.68399 1.825999 33.827986-7.321997l146.745942-146.747942c9.147996-9.147996 11.569995-22.453991 7.323997-33.829986a31.804987 31.804987 0 0 0-7.313997-11.413995z" p-id="4194" fill="#ffffff"></path></svg>