<?xml version="1.0" standalone="no"?><!DOCTYPE svg PUBLIC "-//W3C//DTD SVG 1.1//EN" "http://www.w3.org/Graphics/SVG/1.1/DTD/svg11.dtd"><svg t="1495191353170" class="icon" style="" viewBox="0 0 1024 1024" version="1.1" xmlns="http://www.w3.org/2000/svg" p-id="7712" xmlns:xlink="http://www.w3.org/1999/xlink" width="200" height="200"><defs><style type="text/css"></style></defs><path d="M992 512c0-265.097-214.903-480-480-480s-480 214.903-480 480c0 265.097 214.903 480 480 480 106.581 0 207.925-34.856 290.899-98.161 9.163-6.991 10.925-20.087 3.933-29.251-6.991-9.163-20.087-10.925-29.251-3.933-75.762 57.803-168.229 89.605-265.582 89.605-242.045 0-438.261-196.216-438.261-438.261 0-242.045 196.216-438.261 438.261-438.261 242.045 0 438.261 196.216 438.261 438.261 0 81.607-22.32 159.882-63.9 228.001-6.006 9.838-2.898 22.681 6.94 28.687 9.838 6.006 22.681 2.898 28.687-6.94 45.55-74.622 70.013-160.413 70.013-249.748z" p-id="7713" fill="#ffffff"></path><path d="M377.846 477.852l-28.313 2.447 227.528 177.586 242.742-311.356c7.087-9.090 5.463-22.204-3.627-29.29-9.090-7.087-22.204-5.463-29.29 3.627l-229.903 294.888 29.3-3.62-226.36-176.676-162.126 179.123c-7.734 8.545-7.077 21.742 1.468 29.478 8.545 7.734 21.743 7.077 29.478-1.468l149.107-164.738z" p-id="7714" fill="#ffffff"></path></svg>