<?xml version="1.0" standalone="no"?><!DOCTYPE svg PUBLIC "-//W3C//DTD SVG 1.1//EN"
        "http://www.w3.org/Graphics/SVG/1.1/DTD/svg11.dtd">
<svg t="1495011478742" class="icon" style="" viewBox="0 0 1024 1024" version="1.1" xmlns="http://www.w3.org/2000/svg"
     p-id="1004" xmlns:xlink="http://www.w3.org/1999/xlink" width="200" height="200">
    <defs>
        <style type="text/css"></style>
    </defs>
    <path d="M363.712 722.048l41.312-57.824-45.248-45.248-57.824 41.312c-10.72-5.984-22.208-10.784-34.272-14.208l-11.68-70.08-64 0-11.68 70.08c-12.064 3.424-23.552 8.192-34.272 14.208l-57.824-41.312-45.248 45.248 41.312 57.824c-5.984 10.72-10.784 22.208-14.176 34.272l-70.08 11.68 0 64 70.08 11.68c3.424 12.064 8.192 23.552 14.208 34.272l-41.312 57.824 45.248 45.248 57.824-41.312c10.72 5.984 22.208 10.784 34.272 14.208l11.68 70.08 64 0 11.68-70.08c12.064-3.424 23.552-8.192 34.272-14.208l57.824 41.312 45.248-45.248-41.312-57.824c5.984-10.72 10.784-22.208 14.208-34.272l70.08-11.68 0-64-70.08-11.68c-3.424-12.064-8.192-23.552-14.208-34.272zM224 864c-35.36 0-64-28.64-64-64s28.64-64 64-64 64 28.64 64 64-28.64 64-64 64zM1024 384l0-64-67.392-12.256c-1.248-8.032-2.816-15.968-4.736-23.776l57.568-37.088-24.48-59.136-66.944 14.464c-4.224-6.912-8.736-13.632-13.504-20.128l39.008-56.352-45.248-45.248-56.352 39.008c-6.496-4.768-13.216-9.28-20.128-13.504l14.464-66.944-59.136-24.48-37.088 57.568c-7.808-1.888-15.744-3.488-23.776-4.736l-12.256-67.392-64 0-12.256 67.392c-8.032 1.248-15.968 2.816-23.776 4.736l-37.088-57.568-59.136 24.48 14.464 66.944c-6.912 4.224-13.632 8.736-20.128 13.504l-56.352-39.008-45.248 45.248 39.008 56.352c-4.768 6.496-9.28 13.216-13.504 20.128l-66.944-14.464-24.48 59.136 57.568 37.088c-1.888 7.808-3.488 15.744-4.736 23.776l-67.392 12.256 0 64 67.392 12.256c1.248 8.032 2.816 15.968 4.736 23.776l-57.568 37.088 24.48 59.136 66.944-14.464c4.224 6.912 8.736 13.632 13.504 20.128l-39.008 56.352 45.248 45.248 56.352-39.008c6.496 4.768 13.216 9.28 20.128 13.504l-14.464 66.944 59.136 24.48 37.088-57.568c7.808 1.888 15.744 3.488 23.776 4.736l12.256 67.392 64 0 12.256-67.392c8.032-1.248 15.968-2.816 23.776-4.736l37.088 57.568 59.136-24.48-14.464-66.944c6.912-4.224 13.632-8.736 20.128-13.504l56.352 39.008 45.248-45.248-39.008-56.352c4.768-6.496 9.28-13.216 13.504-20.128l66.944 14.464 24.48-59.136-57.568-37.088c1.888-7.808 3.488-15.744 4.736-23.776l67.392-12.256zM672 491.2c-76.864 0-139.2-62.336-139.2-139.2s62.336-139.2 139.2-139.2 139.2 62.336 139.2 139.2c0 76.864-62.336 139.2-139.2 139.2z"
          p-id="1005" fill="#3dbff0"></path>
</svg>