<?xml version="1.0" standalone="no"?><!DOCTYPE svg PUBLIC "-//W3C//DTD SVG 1.1//EN" "http://www.w3.org/Graphics/SVG/1.1/DTD/svg11.dtd"><svg t="1495035843284" class="icon" style="" viewBox="0 0 1024 1024" version="1.1" xmlns="http://www.w3.org/2000/svg" p-id="2396" xmlns:xlink="http://www.w3.org/1999/xlink" width="200" height="200"><defs><style type="text/css"></style></defs><path d="M563.049676 845.044212c0.243547 0.8913 0.278339 1.835811 0.122797 2.78237l-16.249079 93.819782c-0.502443 2.977821-3.052522 5.13802-5.999644 5.13802l-59.165518 0c-2.947122 0-5.462408-2.14178-5.999644-5.13802l-16.386202-92.035136c-0.173962-0.964978-0.140193-1.963725 0.138146-2.874467l19.263739-68.998467c0.832971-2.963495 3.677762-4.926196 6.658653-4.496407 3.728928 0.535189 6.468318 0.981351 8.80862 1.355881 5.740748 0.928139 8.636704 1.409093 17.756409 1.409093 9.001001 0 11.843746-0.463558 17.497513-1.3743 2.306532-0.356111 5.062296-0.820692 8.755408-1.319042 3.121084-0.411369 5.861498 1.534959 6.67605 4.5312L563.049676 845.044212zM941.557336 847.576895c-80.146365-80.06143-177.930435-136.499837-283.117103-163.515121-2.65241-1.49812-5.669116-2.284019-8.757454-2.284019l-9.537214 0c-0.2415 0-0.502443 0.053212-0.762363 0.071631l43.211151 96.317673-90.082668 168.939667 336.317769 0c10.092869 0 18.277272-8.387018 18.277272-18.806321l0-67.196425C947.106726 855.999728 945.095929 851.110371 941.557336 847.576895zM384.860345 681.849386c-0.381693 0-0.693802-0.090051-1.040702-0.090051l-6.935969 0c-1.404999 0-2.811022 0.160659-4.197602 0.481977-107.961874 26.299993-208.327746 83.471087-290.24443 165.334559-3.554966 3.568269-5.54939 8.422833-5.54939 13.526061l0 67.196425c0 10.420327 8.185426 18.806321 18.277272 18.806321l334.081845 0-88.437192-166.816307L384.860345 681.849386zM617.309464 634.100896l0-58.06137c37.161365-37.202297 62.165852-91.428316 66.066695-145.635915 0.190335 0 0.399089 0 0.589424 0 18.571984 0 33.623795-16.414855 33.623795-36.667108 0-14.953573-8.185426-27.783787-19.907399-33.492812 6.7968-21.697161 10.524704-44.964074 10.524704-69.195965 0-118.228705-87.829348-214.153428-196.207707-214.153428s-196.225103 95.924723-196.225103 214.153428c0 24.231891 3.764744 47.498804 10.544147 69.195965-11.722996 5.710049-19.924795 18.540262-19.924795 33.492812 0 20.252253 15.051811 36.667108 33.623795 36.667108 0.207731 0 0.381693 0 0.589424 0 3.849678 53.493332 28.29851 106.917078 64.626903 144.066163l0 59.631122c0 1.963725 0.432859 3.926426 1.319042 5.710049 4.837168 9.797134 48.969295 95.67606 104.492866 96.852862 0.069585 0 0.989537 0 1.058099 0 0 0 0 0 0.033769 0 55.403844 0 99.083669-87.039355 103.904465-96.959286C616.875582 637.95569 617.309464 636.06462 617.309464 634.100896z" p-id="2397" fill="#1296db"></path></svg>