<?xml version="1.0" standalone="no"?><!DOCTYPE svg PUBLIC "-//W3C//DTD SVG 1.1//EN" "http://www.w3.org/Graphics/SVG/1.1/DTD/svg11.dtd"><svg t="1495191524162" class="icon" style="" viewBox="0 0 1024 1024" version="1.1" xmlns="http://www.w3.org/2000/svg" p-id="5238" xmlns:xlink="http://www.w3.org/1999/xlink" width="200" height="200"><defs><style type="text/css"></style></defs><path d="M512 1024c-281.6 0-512-230.4-512-512 0-281.6 230.4-512 512-512 281.6 0 512 230.4 512 512C1024 793.6 793.6 1024 512 1024zM512 25.6c-268.8 0-486.4 217.6-486.4 486.4s217.6 486.4 486.4 486.4 486.4-217.6 486.4-486.4S780.8 25.6 512 25.6z" p-id="5239" fill="#ffffff"></path><path d="M885.76 842.24c0 0-112.64-110.08-271.36-151.04l-10.24-2.56 0-10.24c0-2.56 0-81.92 20.48-125.44 5.12-10.24 12.8-20.48 20.48-30.72 17.92-25.6 38.4-56.32 33.28-76.8-2.56-7.68-5.12-12.8-15.36-15.36l-10.24-5.12 5.12-10.24c0 0 51.2-110.08 7.68-176.64-25.6-38.4-76.8-58.88-153.6-58.88-76.8 0-128 20.48-153.6 58.88-43.52 69.12 7.68 176.64 7.68 176.64l5.12 10.24-10.24 5.12c-7.68 5.12-12.8 10.24-15.36 15.36-5.12 20.48 15.36 51.2 33.28 76.8 7.68 10.24 15.36 23.04 20.48 30.72 20.48 40.96 20.48 120.32 20.48 125.44l0 10.24-10.24 2.56c-158.72 40.96-268.8 148.48-271.36 151.04l-17.92-17.92c5.12-5.12 112.64-110.08 271.36-153.6 0-20.48-2.56-74.24-17.92-102.4-5.12-7.68-10.24-17.92-17.92-28.16-20.48-30.72-43.52-66.56-35.84-97.28 2.56-10.24 7.68-17.92 17.92-25.6-12.8-30.72-43.52-125.44-2.56-192 30.72-46.08 89.6-71.68 174.08-71.68 87.04 0 145.92 23.04 174.08 71.68 43.52 66.56 10.24 161.28-2.56 192 7.68 7.68 15.36 15.36 17.92 25.6 7.68 30.72-15.36 66.56-35.84 97.28-7.68 10.24-12.8 20.48-17.92 28.16-15.36 28.16-15.36 81.92-17.92 102.4 158.72 43.52 268.8 148.48 271.36 153.6L885.76 842.24z" p-id="5240" fill="#ffffff"></path></svg>