<?xml version="1.0" standalone="no"?><!DOCTYPE svg PUBLIC "-//W3C//DTD SVG 1.1//EN" "http://www.w3.org/Graphics/SVG/1.1/DTD/svg11.dtd"><svg t="1495190302443" class="icon" style="" viewBox="0 0 1024 1024" version="1.1" xmlns="http://www.w3.org/2000/svg" p-id="5325" xmlns:xlink="http://www.w3.org/1999/xlink" width="200" height="200"><defs><style type="text/css"></style></defs><path d="M474.017 486.689c-5.394 0-5.394 0 0 0-10.783 0-16.177-5.394-21.568-16.177l-48.531-134.805-64.704-26.964c-5.394 0-10.783-5.394-10.783-10.783l-21.568-70.097c-5.394-10.783 0-21.568 10.783-26.964s21.568 0 26.964 10.783l21.568 59.316 70.097 32.352c5.394 0 10.783 5.394 10.783 10.783l37.745 113.234 48.531-48.531 5.394-86.275c0-5.394 5.394-10.783 5.394-16.177l107.844-86.275c10.783-5.394 21.568-5.394 26.964 5.394s5.394 21.568-5.394 26.964l-97.059 86.275-5.394 86.275c0 5.394 0 10.783-5.394 10.783l-75.489 75.489c-5.394 5.394-10.783 5.394-16.177 5.394z" p-id="5326" fill="#ffffff"></path><path d="M193.627 696.977c-21.568 0-37.745 0-53.918-5.394-48.531-5.394-80.883-21.568-91.669-48.531-21.568-43.137 21.568-86.275 26.964-91.669 10.783-10.783 26.964-10.783 37.745 0 10.783 10.783 10.783 26.964 0 37.745v0c-10.783 10.783-21.568 26.964-16.177 32.352 0 0 21.568 43.137 264.215 5.394 231.863-32.352 366.663-86.275 442.151-124.020 10.783-5.394 26.964-10.783 37.745-21.568 32.352-21.568 43.137-32.352 48.531-32.352 0 0 0 0 0 0 10.783-10.783 16.177-21.568 21.568-26.964-5.394 0-16.177-5.394-37.745-5.394-16.177 0-26.964-10.783-26.964-26.964 0-16.177 10.783-26.964 26.964-26.964 16.177 0 70.097 0 86.275 37.745 5.394 16.177 0 37.745-10.783 59.316-10.783 10.783-16.177 21.568-21.568 21.568-5.394 5.394-21.568 21.568-53.918 43.137-10.783 5.394-26.964 16.177-37.745 21.568-80.883 43.137-221.079 97.059-458.331 129.41-80.883 16.177-134.805 21.568-183.331 21.568z" p-id="5327" fill="#ffffff"></path><path d="M414.707 874.922c-5.394 0-10.783 0-10.783-5.394-10.783-5.394-10.783-21.568 0-26.964l64.704-80.883c0-5.394 5.394-5.394 10.783-5.394l48.531-16.177 37.745-70.097c5.394-5.394 10.783-10.783 16.177-10.783s16.177 5.394 16.177 10.783l86.275 140.197c5.394 10.783 5.394 21.568-5.394 26.964s-21.568 5.394-26.964-5.394l-64.704-107.844-26.964 43.137c0 5.394-5.394 10.783-10.783 10.783l-53.918 16.177-64.704 75.489c-5.394 0-10.783 5.394-16.177 5.394z" p-id="5328" fill="#ffffff"></path><path d="M500.981 901.884c-75.489 0-145.588-21.568-204.901-59.316s-107.844-91.669-134.805-156.371c-5.394-10.783 0-26.964 10.783-32.352 10.783-5.394 26.964 0 32.352 10.783 53.918 113.234 167.157 188.726 296.566 188.726 177.942 0 323.529-145.588 323.529-323.529 0-5.394 0-10.783 0-16.177 0-16.177 10.783-26.964 26.964-26.964 16.177 0 26.964 10.783 26.964 26.964 0 5.394 0 10.783 0 16.177 0 102.45-37.745 194.116-107.844 264.215-75.489 70.097-167.157 107.844-269.606 107.844zM150.492 551.395c-16.177 0-26.964-10.783-26.964-26.964 0-102.45 37.745-194.116 107.844-264.215 70.097-70.097 167.157-113.234 264.215-113.234 70.097 0 140.197 21.568 204.901 59.316 59.316 37.745 107.844 91.669 134.805 156.371 5.394 10.783 0 26.964-10.783 32.352-10.783 5.394-26.964 0-32.352-10.783-53.918-113.234-167.157-183.331-291.175-183.331-177.942 0-323.529 145.588-323.529 323.529 0 10.783-10.783 26.964-26.964 26.964z" p-id="5329" fill="#ffffff"></path></svg>